<svg xmlns="http://www.w3.org/2000/svg" xmlns:xlink="http://www.w3.org/1999/xlink" contentStyleType="text/css" data-diagram-type="DESCRIPTION" height="1682px" preserveAspectRatio="none" style="width:1487px;height:1682px;background:#FFFFFF;" version="1.1" viewBox="0 0 1487 1682" width="1487px" zoomAndPan="magnify"><?plantuml 1.2026.3beta6?><defs/><g><g class="title" data-source-line="33"><text fill="#000000" font-family="Calibri" font-size="24" font-weight="700" lengthAdjust="spacing" textLength="535.5" x="475.1291" y="45.2773">Port Tariff Calculator -- Solution Design</text><text fill="#009688" font-family="Calibri" font-size="15" font-weight="700" lengthAdjust="spacing" textLength="475.752" x="505.0032" y="64.8608">Agentic RAG System for Maritime Port Dues Automation</text><text fill="#000000" font-family="Calibri" font-size="22" font-weight="700" lengthAdjust="spacing" textLength="7.6592" x="739.0496" y="88.8193">&#160;</text></g><!--entity nl--><g class="entity" data-qualified-name="nl" data-source-line="37" id="ent0002"><rect fill="#E8EAF6" height="84.8906" rx="5" ry="5" style="stroke:#5C6BC0;stroke-width:2;" width="247.5449" x="991.24" y="120.0078"/><text fill="#000000" font-family="Calibri" font-size="14" font-weight="700" lengthAdjust="spacing" textLength="193.4023" x="1009.24" y="151.0029">Natural Language Query</text><text fill="#000000" font-family="Calibri" font-size="14" font-style="italic" lengthAdjust="spacing" textLength="174.5762" x="1009.24" y="167.2998">\"SUDESTADA, 51300 GT</text><text fill="#000000" font-family="Calibri" font-size="14" lengthAdjust="spacing" textLength="211.5449" x="1009.24" y="183.5967">bulk carrier at Durban...\"&lt;/i&gt;</text></g><!--entity json--><g class="entity" data-qualified-name="json" data-source-line="38" id="ent0003"><rect fill="#E8EAF6" height="68.5938" rx="5" ry="5" style="stroke:#5C6BC0;stroke-width:2;" width="164.8096" x="528.61" y="128.1578"/><text fill="#000000" font-family="Calibri" font-size="14" font-weight="700" lengthAdjust="spacing" textLength="128.8096" x="546.61" y="159.1529">Structured JSON</text><text fill="#000000" font-family="Calibri" font-size="14" font-style="italic" lengthAdjust="spacing" textLength="128.5908" x="546.61" y="175.4498">vessel_profile.json</text></g><!--entity pdf--><g class="entity" data-qualified-name="pdf" data-source-line="39" id="ent0004"><rect fill="#E8EAF6" height="68.5938" rx="5" ry="5" style="stroke:#5C6BC0;stroke-width:2;" width="197.54" x="743.24" y="128.1578"/><text fill="#000000" font-family="Calibri" font-size="14" font-weight="700" lengthAdjust="spacing" textLength="117.5508" x="761.24" y="159.1529">Port Tariff PDF</text><text fill="#000000" font-family="Calibri" font-size="14" font-style="italic" lengthAdjust="spacing" textLength="161.54" x="761.24" y="175.4498">Transnet SA tariff book</text></g><!--entity parser--><g class="entity" data-qualified-name="parser" data-source-line="43" id="ent0005"><rect fill="#E3F2FD" height="84.8906" rx="5" ry="5" style="stroke:#1E88E5;stroke-width:2;" width="220.5908" x="1010.72" y="275.8978"/><text fill="#000000" font-family="Calibri" font-size="14" font-weight="700" lengthAdjust="spacing" textLength="128.085" x="1028.72" y="306.8929">query_parser.py</text><text fill="#000000" font-family="Calibri" font-size="14" lengthAdjust="spacing" textLength="178.9033" x="1028.72" y="323.1898">OpenAI structured output</text><text fill="#000000" font-family="Calibri" font-size="14" lengthAdjust="spacing" textLength="76.8838" x="1028.72" y="339.4867">NL text --&gt;</text><text fill="#000000" font-family="Calibri" font-size="14" font-weight="700" lengthAdjust="spacing" textLength="103.2568" x="1110.054" y="339.4867">VesselProfile</text></g><!--entity docproc--><g class="entity" data-qualified-name="docproc" data-source-line="46" id="ent0006"><rect fill="#E3F2FD" height="84.8906" rx="5" ry="5" style="stroke:#1E88E5;stroke-width:2;" width="238.1797" x="722.92" y="275.8978"/><text fill="#000000" font-family="Calibri" font-size="14" font-weight="700" lengthAdjust="spacing" textLength="187.6396" x="740.92" y="306.8929">document_processor.py</text><text fill="#000000" font-family="Calibri" font-size="14" lengthAdjust="spacing" textLength="202.1797" x="740.92" y="323.1898">pdfplumber --&gt; PageContent</text><text fill="#000000" font-family="Calibri" font-size="14" lengthAdjust="spacing" textLength="187.7695" x="740.92" y="339.4867">--&gt; LangChain chunks (87)</text></g><!--entity vessel--><g class="entity" data-qualified-name="vessel" data-source-line="50" id="ent0007"><rect fill="#E0F2F1" height="84.8906" rx="5" ry="5" style="stroke:#00897B;stroke-width:2;" width="204.6426" x="571.69" y="782.8678"/><text fill="#000000" font-family="Calibri" font-size="14" font-weight="700" lengthAdjust="spacing" textLength="132.7744" x="589.69" y="813.8629">vessel_profile.py</text><text fill="#000000" font-family="Calibri" font-size="14" lengthAdjust="spacing" textLength="164.8828" x="589.69" y="830.1598">VesselProfile (Pydantic)</text><text fill="#000000" font-family="Calibri" font-size="14" lengthAdjust="spacing" textLength="168.6426" x="589.69" y="846.4567">GT, NT, LOA, DWT, days</text></g><!--entity schema--><g class="entity" data-qualified-name="schema" data-source-line="51" id="ent0008"><rect fill="#E0F2F1" height="84.8906" rx="5" ry="5" style="stroke:#00897B;stroke-width:2;" width="171.3789" x="350.32" y="782.8678"/><text fill="#000000" font-family="Calibri" font-size="14" font-weight="700" lengthAdjust="spacing" textLength="131.6191" x="368.32" y="813.8629">tariff_schema.py</text><text fill="#000000" font-family="Calibri" font-size="14" lengthAdjust="spacing" textLength="135.3789" x="368.32" y="830.1598">ExtractedTariffRule</text><text fill="#000000" font-family="Calibri" font-size="14" lengthAdjust="spacing" textLength="86.2559" x="368.32" y="846.4567">RateBracket</text></g><!--entity chromadb--><g class="entity" data-qualified-name="chromadb" data-source-line="55" id="ent0009"><path d="M807.28,441.7978 C807.28,431.7978 869.0095,431.7978 869.0095,431.7978 C869.0095,431.7978 930.739,431.7978 930.739,441.7978 L930.739,515.6884 C930.739,525.6884 869.0095,525.6884 869.0095,525.6884 C869.0095,525.6884 807.28,525.6884 807.28,515.6884 L807.28,441.7978" fill="#ECEFF1" style="stroke:#546E7A;stroke-width:1;"/><path d="M807.28,441.7978 C807.28,451.7978 869.0095,451.7978 869.0095,451.7978 C869.0095,451.7978 930.739,451.7978 930.739,441.7978" fill="none" style="stroke:#546E7A;stroke-width:1;"/><text fill="#000000" font-family="Calibri" font-size="14" font-weight="700" lengthAdjust="spacing" textLength="83.0908" x="825.28" y="476.7929">ChromaDB</text><text fill="#000000" font-family="Calibri" font-size="14" lengthAdjust="spacing" textLength="87.0488" x="825.28" y="493.0898">.chroma_db/</text><text fill="#000000" font-family="Calibri" font-size="14" lengthAdjust="spacing" textLength="87.459" x="825.28" y="509.3867">Vector Store</text></g><!--entity cache--><g class="entity" data-qualified-name="cache" data-source-line="56" id="ent0010"><path d="M447.57,624.3278 C447.57,614.3278 550.0075,614.3278 550.0075,614.3278 C550.0075,614.3278 652.445,614.3278 652.445,624.3278 L652.445,698.2184 C652.445,708.2184 550.0075,708.2184 550.0075,708.2184 C550.0075,708.2184 447.57,708.2184 447.57,698.2184 L447.57,624.3278" fill="#ECEFF1" style="stroke:#546E7A;stroke-width:1;"/><path d="M447.57,624.3278 C447.57,634.3278 550.0075,634.3278 550.0075,634.3278 C550.0075,634.3278 652.445,634.3278 652.445,624.3278" fill="none" style="stroke:#546E7A;stroke-width:1;"/><text fill="#000000" font-family="Calibri" font-size="14" font-weight="700" lengthAdjust="spacing" textLength="87.3975" x="465.57" y="659.3229">Rule Cache</text><text fill="#000000" font-family="Calibri" font-size="14" lengthAdjust="spacing" textLength="84.7588" x="465.57" y="675.6198">.rule_cache/</text><text fill="#000000" font-family="Calibri" font-size="14" lengthAdjust="spacing" textLength="168.875" x="465.57" y="691.9167">PDF hash + tariff + port</text></g><!--entity extractor--><g class="entity" data-qualified-name="extractor" data-source-line="58" id="ent0011"><rect fill="#E3F2FD" height="101.1875" rx="5" ry="5" style="stroke:#1E88E5;stroke-width:2;" width="263.3906" x="781.32" y="610.6878"/><text fill="#000000" font-family="Calibri" font-size="14" font-weight="700" lengthAdjust="spacing" textLength="144.5732" x="799.32" y="641.6829">tariff_extractor.py</text><text fill="#000000" font-family="Calibri" font-size="14" lengthAdjust="spacing" textLength="209.1934" x="799.32" y="657.9798">Semantic retrieval (TOP_K=8)</text><text fill="#000000" font-family="Calibri" font-size="14" lengthAdjust="spacing" textLength="195.084" x="799.32" y="674.2767">+ OpenAI structured output</text><text fill="#000000" font-family="Calibri" font-size="14" lengthAdjust="spacing" textLength="227.3906" x="799.32" y="690.5736">--&gt; ExtractedTariffRule per tariff</text></g><!--entity agent--><g class="entity" data-qualified-name="agent" data-source-line="61" id="ent0012"><rect fill="#E8F5E9" height="101.1875" rx="5" ry="5" style="stroke:#2E7D32;stroke-width:2;" width="281.7725" x="414.12" y="908.7578"/><text fill="#000000" font-family="Calibri" font-size="14" font-weight="700" lengthAdjust="spacing" textLength="70.0889" x="432.12" y="939.7529">agent.py</text><text fill="#000000" font-family="Calibri" font-size="14" lengthAdjust="spacing" textLength="149.5293" x="432.12" y="956.0498">Parallel orchestration</text><text fill="#000000" font-family="Calibri" font-size="14" lengthAdjust="spacing" textLength="245.7725" x="432.12" y="972.3467">ThreadPoolExecutor (6 concurrent)</text><text fill="#000000" font-family="Calibri" font-size="14" lengthAdjust="spacing" textLength="75.9473" x="432.12" y="988.6436">Cache-first</text><text fill="#000000" font-family="Calibri" font-size="14" lengthAdjust="spacing" text-decoration="line-through" textLength="43.8594" x="512.5175" y="988.6436">&gt; LLM</text><text fill="#000000" font-family="Calibri" font-size="14" lengthAdjust="spacing" textLength="73.8623" x="560.827" y="988.6436">&gt; Fallback</text></g><!--entity fallback--><g class="entity" data-qualified-name="fallback" data-source-line="64" id="ent0013"><rect fill="#FFF3E0" height="84.8906" rx="5" ry="5" style="stroke:#EF6C00;stroke-width:2;" width="284.0215" x="12" y="618.8278"/><text fill="#000000" font-family="Calibri" font-size="14" font-weight="700" lengthAdjust="spacing" textLength="134.5518" x="30" y="649.8229">fallback_rates.py</text><text fill="#000000" font-family="Calibri" font-size="14" lengthAdjust="spacing" textLength="181.4053" x="30" y="666.1198">Transnet hardcoded rates</text><text fill="#000000" font-family="Calibri" font-size="14" lengthAdjust="spacing" textLength="248.0215" x="30" y="682.4167">(same ExtractedTariffRule schema)</text></g><!--entity calc--><g class="entity" data-qualified-name="calc" data-source-line="67" id="ent0014"><rect fill="#E8F5E9" height="101.1875" rx="5" ry="5" style="stroke:#2E7D32;stroke-width:2;" width="319.876" x="395.07" y="1080.9478"/><text fill="#000000" font-family="Calibri" font-size="14" font-weight="700" lengthAdjust="spacing" textLength="102.7373" x="413.07" y="1111.9429">calculator.py</text><text fill="#000000" font-family="Calibri" font-size="14" lengthAdjust="spacing" textLength="163.6045" x="413.07" y="1128.2398">apply_rule(vessel, rule)</text><text fill="#000000" font-family="Calibri" font-size="14" lengthAdjust="spacing" textLength="283.876" x="413.07" y="1144.5367">Brackets | Per-GT | Flat fee | Time-based</text><text fill="#000000" font-family="Calibri" font-size="14" font-weight="700" lengthAdjust="spacing" textLength="189.4238" x="413.07" y="1160.8336">Zero tariff-specific logic</text></g><!--entity result--><g class="entity" data-qualified-name="result" data-source-line="70" id="ent0015"><rect fill="#F3E5F5" height="84.8906" rx="5" ry="5" style="stroke:#7B1FA2;stroke-width:2;" width="218.123" x="445.95" y="1223.1378"/><text fill="#000000" font-family="Calibri" font-size="14" font-weight="700" lengthAdjust="spacing" textLength="138.1748" x="463.95" y="1254.1329">CalculationResult</text><text fill="#000000" font-family="Calibri" font-size="14" lengthAdjust="spacing" textLength="172.6006" x="463.95" y="1270.4298">JSON + formatted report</text><text fill="#000000" font-family="Calibri" font-size="14" lengthAdjust="spacing" textLength="182.123" x="463.95" y="1286.7267">6 line items with formulas</text></g><!--entity cli--><g class="entity" data-qualified-name="cli" data-source-line="73" id="ent0016"><rect fill="#F3E5F5" height="68.5938" rx="5" ry="5" style="stroke:#7B1FA2;stroke-width:2;" width="223.168" x="309.43" y="1357.1778"/><text fill="#000000" font-family="Calibri" font-size="14" font-weight="700" lengthAdjust="spacing" textLength="63.2666" x="327.43" y="1388.1729">main.py</text><text fill="#000000" font-family="Calibri" font-size="14" lengthAdjust="spacing" textLength="32.6279" x="395.1468" y="1388.1729">(CLI)</text><text fill="#000000" font-family="Calibri" font-size="14" lengthAdjust="spacing" textLength="187.168" x="327.43" y="1404.4698">validate | calculate | query</text></g><!--entity api--><g class="entity" data-qualified-name="api" data-source-line="74" id="ent0017"><rect fill="#F3E5F5" height="84.8906" rx="5" ry="5" style="stroke:#7B1FA2;stroke-width:2;" width="214.3564" x="582.83" y="1349.0278"/><text fill="#000000" font-family="Calibri" font-size="14" font-weight="700" lengthAdjust="spacing" textLength="48.7334" x="600.83" y="1380.0229">api.py</text><text fill="#000000" font-family="Calibri" font-size="14" lengthAdjust="spacing" textLength="62.4873" x="654.0136" y="1380.0229">(FastAPI)</text><text fill="#000000" font-family="Calibri" font-size="14" lengthAdjust="spacing" textLength="122.0557" x="600.83" y="1396.3198">/query  /calculate</text><text fill="#000000" font-family="Calibri" font-size="14" lengthAdjust="spacing" textLength="178.3564" x="600.83" y="1412.6167">/calculate/upload  /health</text></g><g class="entity" data-qualified-name="GMN39" data-source-line="108" id="ent0040"><path d="M1281.27,289.3978 L1281.27,314.3478 L1231.51,318.3478 L1281.27,322.3478 L1281.27,347.3041 A5,5 0 0 0 1286.27,352.3041 L1467.7583,352.3041 A5,5 0 0 0 1472.7583,347.3041 L1472.7583,294.3978 L1462.7583,284.3978 L1286.27,284.3978 A5,5 0 0 0 1281.27,289.3978" fill="#FFFDE7" style="stroke:#FBC02D;stroke-width:1;"/><path d="M1462.7583,284.3978 L1462.7583,291.8978 A2.5,2.5 0 0 0 1465.2583,294.3978 L1472.7583,294.3978 L1462.7583,284.3978" fill="#FFFDE7" style="stroke:#FBC02D;stroke-width:1;"/><text fill="#000000" font-family="Calibri" font-size="12" font-weight="700" lengthAdjust="spacing" textLength="124.4063" x="1295.27" y="308.5365">Structured Output</text><text fill="#000000" font-family="Calibri" font-size="12" lengthAdjust="spacing" textLength="154.4883" x="1295.27" y="322.5052">Guaranteed valid schema</text><text fill="#000000" font-family="Calibri" font-size="12" lengthAdjust="spacing" textLength="146.9941" x="1295.27" y="336.474">No manual JSON parsing</text></g><g class="entity" data-qualified-name="GMN42" data-source-line="114" id="ent0043"><path d="M746.04,923.4178 L746.04,955.3578 L696.2,959.3578 L746.04,963.3578 L746.04,995.2928 A5,5 0 0 0 751.04,1000.2928 L934.9716,1000.2928 A5,5 0 0 0 939.9716,995.2928 L939.9716,928.4178 L929.9716,918.4178 L751.04,918.4178 A5,5 0 0 0 746.04,923.4178" fill="#FFFDE7" style="stroke:#FBC02D;stroke-width:1;"/><path d="M929.9716,918.4178 L929.9716,925.9178 A2.5,2.5 0 0 0 932.4716,928.4178 L939.9716,928.4178 L929.9716,918.4178" fill="#FFFDE7" style="stroke:#FBC02D;stroke-width:1;"/><text fill="#000000" font-family="Calibri" font-size="12" font-weight="700" lengthAdjust="spacing" textLength="117.4746" x="760.04" y="942.5565">Graceful Fallback</text><text fill="#000000" font-family="Calibri" font-size="12" lengthAdjust="spacing" textLength="123.2813" x="760.04" y="956.5252">LLM extraction fails?</text><text fill="#000000" font-family="Calibri" font-size="12" lengthAdjust="spacing" textLength="156.9316" x="760.04" y="970.494">Same code path, different</text><text fill="#000000" font-family="Calibri" font-size="12" lengthAdjust="spacing" textLength="144.4277" x="760.04" y="984.4627">rule source (hardcoded)</text></g><g class="entity" data-qualified-name="GMN45" data-source-line="121" id="ent0046"><path d="M765.29,1102.5878 L765.29,1127.5478 L715.39,1131.5478 L765.29,1135.5478 L765.29,1160.4941 A5,5 0 0 0 770.29,1165.4941 L945.7255,1165.4941 A5,5 0 0 0 950.7255,1160.4941 L950.7255,1107.5878 L940.7255,1097.5878 L770.29,1097.5878 A5,5 0 0 0 765.29,1102.5878" fill="#FFFDE7" style="stroke:#FBC02D;stroke-width:1;"/><path d="M940.7255,1097.5878 L940.7255,1105.0878 A2.5,2.5 0 0 0 943.2255,1107.5878 L950.7255,1107.5878 L940.7255,1097.5878" fill="#FFFDE7" style="stroke:#FBC02D;stroke-width:1;"/><text fill="#000000" font-family="Calibri" font-size="12" font-weight="700" lengthAdjust="spacing" textLength="148.4355" x="779.29" y="1121.7265">Single Generic Engine</text><text fill="#000000" font-family="Calibri" font-size="12" lengthAdjust="spacing" textLength="143.4258" x="779.29" y="1135.6952">Handles ALL tariff types</text><text fill="#000000" font-family="Calibri" font-size="12" lengthAdjust="spacing" textLength="115.7168" x="779.29" y="1149.664">from schema alone</text></g><!--link nl to parser--><g class="link" data-entity-1="ent0002" data-entity-2="ent0005" data-link-type="dependency" data-source-line="78" id="lnk18"><path d="M1116.63,205.0978 C1117.49,226.9978 1118.2946,247.7724 1119.1546,269.6724" fill="none" id="nl-to-parser" style="stroke:#37474F;stroke-width:2;"/><polygon fill="#37474F" points="1119.39,275.6678,1123.0338,266.5178,1119.1938,270.6717,1115.0399,266.8317,1119.39,275.6678" style="stroke:#37474F;stroke-width:2;"/><text fill="#37474F" font-family="Calibri" font-size="12" lengthAdjust="spacing" textLength="7.6289" x="1127.01" y="245.0365">&#160;&#160;</text><text fill="#1E88E5" font-family="Calibri" font-size="12" lengthAdjust="spacing" textLength="43.3535" x="1134.6389" y="245.0365">gpt-5.4</text></g><!--link json to vessel--><g class="link" data-entity-1="ent0003" data-entity-2="ent0007" data-link-type="dependency" data-source-line="79" id="lnk19"><path d="M528.43,180.7978 C459.34,200.7078 372.01,240.9778 372.01,317.3478 C372.01,317.3478 372.01,317.3478 372.01,662.2778 C372.01,693.8978 396.85,694.1178 423.01,711.8678 C448.89,729.4378 508.4796,756.1408 565.8996,780.3008" fill="none" id="json-to-vessel" style="stroke:#37474F;stroke-width:2;"/><polygon fill="#37474F" points="571.43,782.6278,564.6857,775.4504,566.8213,780.6887,561.5831,782.8243,571.43,782.6278" style="stroke:#37474F;stroke-width:2;"/></g><!--link parser to vessel--><g class="link" data-entity-1="ent0005" data-entity-2="ent0007" data-link-type="dependency" data-source-line="81" id="lnk20"><path d="M1129.54,361.1978 C1143.09,440.6378 1159.6,614.0678 1070.01,711.8678 C982.09,807.8478 907.58,733.9778 784.01,774.8678 C777.15,777.1378 775.7426,777.5247 768.7426,780.2447" fill="none" id="parser-to-vessel" style="stroke:#37474F;stroke-width:2;"/><polygon fill="#37474F" points="763.15,782.4178,772.9877,782.8865,767.8105,780.6069,770.0902,775.4297,763.15,782.4178" style="stroke:#37474F;stroke-width:2;"/><text fill="#37474F" font-family="Calibri" font-size="12" lengthAdjust="spacing" textLength="76.5996" x="1145.01" y="572.8265">VesselProfile</text></g><!--link pdf to docproc--><g class="link" data-entity-1="ent0004" data-entity-2="ent0006" data-link-type="dependency" data-source-line="83" id="lnk21"><path d="M842.01,197.2278 C842.01,220.2378 842.01,244.8478 842.01,269.4178" fill="none" id="pdf-to-docproc" style="stroke:#37474F;stroke-width:2;"/><polygon fill="#37474F" points="842.01,275.4178,846.01,266.4178,842.01,270.4178,838.01,266.4178,842.01,275.4178" style="stroke:#37474F;stroke-width:2;"/></g><!--link docproc to chromadb--><g class="link" data-entity-1="ent0006" data-entity-2="ent0009" data-link-type="dependency" data-source-line="84" id="lnk22"><path d="M849.1,360.9678 C852.79,382.5978 856.3012,403.1832 860.1012,425.4632" fill="none" id="docproc-to-chromadb" style="stroke:#37474F;stroke-width:2;"/><polygon fill="#37474F" points="861.11,431.3778,863.5399,421.8334,860.2694,426.449,855.6538,423.1784,861.11,431.3778" style="stroke:#37474F;stroke-width:2;"/><text fill="#37474F" font-family="Calibri" font-size="12" lengthAdjust="spacing" textLength="79.4707" x="866.01" y="400.9365">index chunks</text></g><!--link chromadb to extractor--><g class="link" data-entity-1="ent0009" data-entity-2="ent0011" data-link-type="dependency" data-source-line="86" id="lnk23"><path d="M880.23,525.7678 C886.52,551.5678 892.9496,577.9484 899.3896,604.3784" fill="none" id="chromadb-to-extractor" style="stroke:#37474F;stroke-width:2;"/><polygon fill="#37474F" points="900.81,610.2078,902.5657,600.5167,899.6263,605.3499,894.7931,602.4106,900.81,610.2078" style="stroke:#37474F;stroke-width:2;"/><text fill="#37474F" font-family="Calibri" font-size="12" lengthAdjust="spacing" textLength="54.9199" x="903.01" y="565.8265">semantic</text><text fill="#37474F" font-family="Calibri" font-size="12" lengthAdjust="spacing" textLength="50.4609" x="905.2395" y="579.7952">retrieval</text></g><!--link cache to extractor--><g class="link" data-entity-1="ent0010" data-entity-2="ent0011" data-link-type="dependency" data-source-line="87" id="lnk24"><path d="M652.58,661.2778 C692.41,661.2778 732.55,661.2778 774.82,661.2778" fill="none" id="cache-to-extractor" style="stroke:#37474F;stroke-width:2;"/><polygon fill="#37474F" points="780.82,661.2778,771.82,657.2778,775.82,661.2778,771.82,665.2778,780.82,661.2778" style="stroke:#37474F;stroke-width:2;"/><text fill="#37474F" font-family="Calibri" font-size="12" lengthAdjust="spacing" textLength="61.3652" x="686.38" y="633.4165">cache hit?</text><text fill="#37474F" font-family="Calibri" font-size="12" lengthAdjust="spacing" textLength="51.6914" x="691.2169" y="647.3852">skip LLM</text></g><!--reverse link cache to extractor--><g class="link" data-entity-1="ent0010" data-entity-2="ent0011" data-link-type="dependency" data-source-line="90" id="lnk27"><path d="M658.6023,691.8306 C667.9023,693.7006 671.33,694.1178 680.38,695.2778 C712.97,699.4578 748.07,697.6478 780.87,693.1978" fill="none" id="cache-backto-extractor" style="stroke:#37474F;stroke-width:2;"/><polygon fill="#37474F" points="652.72,690.6478,660.7549,696.3435,657.6219,691.6335,662.3319,688.5005,652.72,690.6478" style="stroke:#37474F;stroke-width:2;"/><text fill="#37474F" font-family="Calibri" font-size="12" lengthAdjust="spacing" textLength="55.1602" x="689.38" y="684.4165">save rule</text></g><!--link extractor to schema--><g class="link" data-entity-1="ent0011" data-entity-2="ent0008" data-link-type="dependency" data-source-line="89" id="lnk25"><path d="M780.86,698.7478 C710.7,719.1578 623.42,746.2178 547.01,774.8678 C538.81,777.9478 535.9004,779.0148 527.4804,782.5148" fill="none" id="extractor-to-schema" style="stroke:#37474F;stroke-width:2;"/><polygon fill="#37474F" points="521.94,784.8178,531.786,785.0569,526.557,782.8986,528.7153,777.6697,521.94,784.8178" style="stroke:#37474F;stroke-width:2;"/><text fill="#37474F" font-family="Calibri" font-size="12" lengthAdjust="spacing" textLength="134.5898" x="675.01" y="752.0065">6x ExtractedTariffRule</text></g><!--reverse link extractor to agent--><g class="link" data-entity-1="ent0011" data-entity-2="ent0012" data-link-type="dependency" data-source-line="92" id="lnk29"><path d="M895.4556,718.0024 C878.0656,766.2524 847.42,832.4778 796.01,875.7578 C787,883.3478 743.78,898.9178 696.37,914.5078" fill="none" id="extractor-backto-agent" style="stroke:#37474F;stroke-width:2;"/><polygon fill="#37474F" points="897.49,712.3578,890.6754,719.4684,895.7947,717.0616,898.2015,722.1809,897.49,712.3578" style="stroke:#37474F;stroke-width:2;"/><text fill="#2E7D32" font-family="Calibri" font-size="12" font-weight="700" lengthAdjust="spacing" textLength="71.4492" x="878.01" y="829.9565">6x parallel</text></g><!--reverse link fallback to agent--><g class="link" data-entity-1="ent0013" data-entity-2="ent0012" data-link-type="dependency" data-source-line="93" id="lnk31"><path d="M150.3365,710.0747 C148.7865,758.1047 154.34,830.1778 199.01,875.7578 C229.26,906.6278 328.16,928.0378 414.05,941.3078" fill="none" id="fallback-backto-agent" style="stroke:#37474F;stroke-width:2;"/><polygon fill="#37474F" points="150.53,704.0778,146.2418,712.9441,150.3687,709.0752,154.2376,713.2021,150.53,704.0778" style="stroke:#37474F;stroke-width:2;"/><text fill="#EF6C00" font-family="Calibri" font-size="12" lengthAdjust="spacing" textLength="103.8691" x="213.008" y="822.9565">LOW confidence?</text><text fill="#37474F" font-family="Calibri" font-size="12" lengthAdjust="spacing" textLength="113.8652" x="208.01" y="836.9252">substitute&lt;/color&gt;</text></g><!--link fallback to schema--><g class="link" data-entity-1="ent0013" data-entity-2="ent0008" data-link-type="dependency" data-source-line="94" id="lnk32"><path d="M176.88,704.0978 C190.47,724.9978 209.62,748.7678 233.01,762.8678 C258.54,778.2578 270.22,767.1178 299.01,774.8678 C315.74,779.3778 327.6534,783.0356 344.4334,788.8756" fill="none" id="fallback-to-schema" style="stroke:#37474F;stroke-width:2;"/><polygon fill="#37474F" points="350.1,790.8478,342.9149,784.1118,345.3778,789.2043,340.2853,791.6673,350.1,790.8478" style="stroke:#37474F;stroke-width:2;"/><text fill="#37474F" font-family="Calibri" font-size="12" lengthAdjust="spacing" textLength="83.373" x="242.01" y="752.0065">same schema</text></g><!--link vessel to agent--><g class="link" data-entity-1="ent0007" data-entity-2="ent0012" data-link-type="dependency" data-source-line="96" id="lnk33"><path d="M636.36,868.0978 C624.78,880.9378 615.9497,890.7534 603.9297,904.0734" fill="none" id="vessel-to-agent" style="stroke:#37474F;stroke-width:2;"/><polygon fill="#37474F" points="599.91,908.5278,608.9092,904.526,603.2597,904.8158,602.9699,899.1664,599.91,908.5278" style="stroke:#37474F;stroke-width:2;"/></g><!--link schema to agent--><g class="link" data-entity-1="ent0008" data-entity-2="ent0012" data-link-type="dependency" data-source-line="97" id="lnk34"><path d="M473.66,868.0978 C485.24,880.9378 494.0821,890.7517 506.0921,904.0717" fill="none" id="schema-to-agent" style="stroke:#37474F;stroke-width:2;"/><polygon fill="#37474F" points="510.11,908.5278,507.054,899.1651,506.7618,904.8144,501.1125,904.5222,510.11,908.5278" style="stroke:#37474F;stroke-width:2;"/></g><!--link agent to calc--><g class="link" data-entity-1="ent0012" data-entity-2="ent0014" data-link-type="dependency" data-source-line="99" id="lnk35"><path d="M555.01,1010.0378 C555.01,1032.2078 555.01,1052.2878 555.01,1074.5078" fill="none" id="agent-to-calc" style="stroke:#37474F;stroke-width:2;"/><polygon fill="#37474F" points="555.01,1080.5078,559.01,1071.5078,555.01,1075.5078,551.01,1071.5078,555.01,1080.5078" style="stroke:#37474F;stroke-width:2;"/><text fill="#37474F" font-family="Calibri" font-size="12" lengthAdjust="spacing" textLength="84.8965" x="564.01" y="1050.0865">rules + vessel</text></g><!--link calc to result--><g class="link" data-entity-1="ent0014" data-entity-2="ent0015" data-link-type="dependency" data-source-line="101" id="lnk36"><path d="M555.01,1182.4578 C555.01,1195.7478 555.01,1203.9678 555.01,1216.7778" fill="none" id="calc-to-result" style="stroke:#37474F;stroke-width:2;"/><polygon fill="#37474F" points="555.01,1222.7778,559.01,1213.7778,555.01,1217.7778,551.01,1213.7778,555.01,1222.7778" style="stroke:#37474F;stroke-width:2;"/></g><!--link result to cli--><g class="link" data-entity-1="ent0015" data-entity-2="ent0016" data-link-type="dependency" data-source-line="103" id="lnk37"><path d="M509.64,1308.5278 C492.64,1324.2478 477.9563,1337.8254 461.8563,1352.7054" fill="none" id="result-to-cli" style="stroke:#37474F;stroke-width:2;"/><polygon fill="#37474F" points="457.45,1356.7778,466.7744,1353.6067,461.1219,1353.3841,461.3445,1347.7317,457.45,1356.7778" style="stroke:#37474F;stroke-width:2;"/></g><!--link result to api--><g class="link" data-entity-1="ent0015" data-entity-2="ent0017" data-link-type="dependency" data-source-line="104" id="lnk38"><path d="M600.72,1308.5278 C614.79,1321.4378 625.859,1331.6013 639.929,1344.5113" fill="none" id="result-to-api" style="stroke:#37474F;stroke-width:2;"/><polygon fill="#37474F" points="644.35,1348.5678,640.4229,1339.5358,640.6659,1345.1874,635.0142,1345.4304,644.35,1348.5678" style="stroke:#37474F;stroke-width:2;"/></g><g class="legend" data-source-line="127"><rect fill="none" height="223.7813" rx="5" ry="5" style="stroke:#000000;stroke-width:1;" width="206.333" x="1269.4253" y="1446.9184"/><rect fill="#E3F2FD" height="32.2969" style="stroke:none;stroke-width:1;" width="24.9004" x="1282.4253" y="1461.9184"/><text fill="#000000" font-family="Calibri" font-size="14" lengthAdjust="spacing" textLength="8.9004" x="1290.4253" y="1482.9136">&#160;&#160;</text><text fill="#000000" font-family="Calibri" font-size="14" lengthAdjust="spacing" textLength="98.4854" x="1319.7759" y="1482.9136">AI / LLM Layer</text><rect fill="#E0F2F1" height="32.2969" style="stroke:none;stroke-width:1;" width="24.9004" x="1282.4253" y="1494.2153"/><text fill="#000000" font-family="Calibri" font-size="14" lengthAdjust="spacing" textLength="8.9004" x="1290.4253" y="1515.2104">&#160;&#160;</text><text fill="#000000" font-family="Calibri" font-size="14" lengthAdjust="spacing" textLength="87.2061" x="1319.7759" y="1515.2104">Data Models</text><rect fill="#E8F5E9" height="32.2969" style="stroke:none;stroke-width:1;" width="24.9004" x="1282.4253" y="1526.5122"/><text fill="#000000" font-family="Calibri" font-size="14" lengthAdjust="spacing" textLength="8.9004" x="1290.4253" y="1547.5073">&#160;&#160;</text><text fill="#000000" font-family="Calibri" font-size="14" lengthAdjust="spacing" textLength="130.5322" x="1319.7759" y="1547.5073">Calculation Engine</text><rect fill="#FFF3E0" height="32.2969" style="stroke:none;stroke-width:1;" width="24.9004" x="1282.4253" y="1558.8091"/><text fill="#000000" font-family="Calibri" font-size="14" lengthAdjust="spacing" textLength="8.9004" x="1290.4253" y="1579.8042">&#160;&#160;</text><text fill="#000000" font-family="Calibri" font-size="14" lengthAdjust="spacing" textLength="95.5596" x="1319.7759" y="1579.8042">Fallback Data</text><rect fill="#F3E5F5" height="32.2969" style="stroke:none;stroke-width:1;" width="24.9004" x="1282.4253" y="1591.1059"/><text fill="#000000" font-family="Calibri" font-size="14" lengthAdjust="spacing" textLength="8.9004" x="1290.4253" y="1612.1011">&#160;&#160;</text><text fill="#000000" font-family="Calibri" font-size="14" lengthAdjust="spacing" textLength="99.4971" x="1319.7759" y="1612.1011">Entry / Output</text><rect fill="#ECEFF1" height="32.2969" style="stroke:none;stroke-width:1;" width="24.9004" x="1282.4253" y="1623.4028"/><text fill="#000000" font-family="Calibri" font-size="14" lengthAdjust="spacing" textLength="8.9004" x="1290.4253" y="1644.3979">&#160;&#160;</text><text fill="#000000" font-family="Calibri" font-size="14" lengthAdjust="spacing" textLength="80.5752" x="1319.7759" y="1644.3979">Persistence</text><line style="stroke:#000000;stroke-width:1;" x1="1282.4253" x2="1462.7583" y1="1461.9184" y2="1461.9184"/><line style="stroke:#000000;stroke-width:1;" x1="1282.4253" x2="1462.7583" y1="1494.2153" y2="1494.2153"/><line style="stroke:#000000;stroke-width:1;" x1="1282.4253" x2="1462.7583" y1="1526.5122" y2="1526.5122"/><line style="stroke:#000000;stroke-width:1;" x1="1282.4253" x2="1462.7583" y1="1558.8091" y2="1558.8091"/><line style="stroke:#000000;stroke-width:1;" x1="1282.4253" x2="1462.7583" y1="1591.1059" y2="1591.1059"/><line style="stroke:#000000;stroke-width:1;" x1="1282.4253" x2="1462.7583" y1="1623.4028" y2="1623.4028"/><line style="stroke:#000000;stroke-width:1;" x1="1282.4253" x2="1462.7583" y1="1655.6997" y2="1655.6997"/><line style="stroke:#000000;stroke-width:1;" x1="1282.4253" x2="1282.4253" y1="1461.9184" y2="1655.6997"/><line style="stroke:#000000;stroke-width:1;" x1="1307.3257" x2="1307.3257" y1="1461.9184" y2="1655.6997"/><line style="stroke:#000000;stroke-width:1;" x1="1462.7583" x2="1462.7583" y1="1461.9184" y2="1655.6997"/></g><?plantuml-src ZLTRS-8u6dtthz3I3vkkRWAvGEYU35EEiPdi4622CxErHLLAs08ySMIF97Sdkpt_VOyasp4qcKggajYwdE_ewBlv7shB7Xd9KvfmHpuaFAU2Ff8LZHus8Yjux6Lf9iZNRQ9OOpvcQrgaAiYucbBizsYQh4HoUCKY-IyZ9-UDIRcbSVOruHkofgbi0fSs1MU2d7GR4pcDOxrXq1ZZMSmaoqclkL1G_g07pxjESvH5Yl9DoiZ_74AkCX4p4MwJw84pAScfyvUpOojwe9lNbXBoSgZ-xaOgHFRLRBEolJkxEByu3yejXyOiZ0PzbGtFL4bbxrBU1K4myYzgajNebTSz7UtX0r4b2iU_b1ZvV7e-l5mDvvbG9AGYMQ_r3KP5IXKGscsooD929Had8oQJ3R_ih8QN7RrpkEGMuQGtl8oqmS_lkjrF_S5Ww6uOLqb4RjqnMJnBnHx96cWtm5S9VCHO6nLC4hTGsIFL-9STW_42xZZ_93_MF-HwEhyB6mEEoZOCBYkC82-Nsi9ffbGLWgPaWg52Nz-l1HFFcZeu9yDbQt4tyXUXEt8_ajx9MRTBnk6IhuhqWKIuk0IWL1CKAygFZu-NhSjECcmHAWbFoJj_uBj1_uSquUnpp-j3u-y8B9Ge8d1WCVdNOZQjBN_1fRBqFXVPEadPyHzIdxk4rYzl0c_UrNmKrE0X_5rofiZ29SfEhxBieJQGn-k3-7_jAJsTaBbxkxYUZfjoxtBuKmjw3w-KJ1pdfRIpd77tciYNmsU5oWkrv81Kx4d1duO4ktypCioj2dglvMVGGF4iE0r6bkA9FnZulJs2evbtT-DFGpA_dNd-uk-PnbbKFC8TjUWHx6OlV258dXQFAoOCiJaynKEWOF6Iwm7jFjuMwP14smAfX1mDBjuRgW3LS6_WUZCR-PF56_rsppqgdZjoaQFvSqnrUBrVyd7uaKpnEvd1aqU_uoccpz9Gj5XWs0N34ykmsnrykhZwpgnrbdiPeG3Gsgh_f0ID58kjgzqMALloMwhO5OOVc39Mx9w3LlRTwZVV2sUtP84_Flb0_7-7jwuNNi-cJN5YgkYAIilBsmeaXz6LvNCScTVxUDNHaaGwFotmXnaYTZ9UWOhd1nMLtddVlt1tKVL1aED0lCGL6BYFz0204L1aI-KM3CiO-a1o19mreXSTjE0SL9HP2Hikju1Q9ZKAff1dlY197OMp-VqlFmvmdH_8wo6a7VB0bP0SdcJD6OgroJVufZlMGVHgv52TnMlcSrIWD8L7PG8YWA39saiURWMZyJpBKl-9HOMsVDGdKSQZGWW0u5X6xFOw4T9cWCdanlmF0AZR2qFSMDFvAUZvdopfK_zYT7QwHpfm9vChr_lbTTxh4lOU59ci3r2dnoqLSOH-8IPcmP8VITsu71BNkhUD-GhM5Diplsiv-a7VwtRtE7hknBkRkDhTNsKPrLMsPaZpF7s-r-vuPAFt8z4lKB0CEKc-aJaJxN68Xm2RoPenF8Oegctju34AmMhu7oQoqYVQCcTHieR3fTacYUfSgws_GUpPNRXNTNSFKRKAy8HR9j7asOFeceUuGSr7RLTQQAPZQCdxHDiYw20V9VcQgArP0mIRiuJ1WC1dVY_eMLuNLoU12rv_apOVaQ9B4ScHDxc6O0Yi156lnQc4ri-cR5a1qkIWdNricYSrT42bSkSQlcE02EdKu1Yhdpj5dcOqnlIMqLHjhN_dXmtkfqblDftw9Y_kL0qq7cqqoXnXKzR9pwH5IDLusVWURdBLxXsVLxrKop5DHRNHEfNZb02xmnflfz2qi10TGxMgB7bELVggyJhnOd_2O_PK5ajihwUgjI_92OjbcGgNlCw5BSTcsBP8Dbkrly7EuVFZfoL7JvphF08hBsigCsLHmfR-qw6mRZNtf6ojBLbmJOj-OIRi06rpKhl8zwbKijkWqGqqBELbXhGjSdK39KPffauY3H2RGeQJsUywRQwJcF68wJCMAubElL3i1QtU__rPJHAphw1UNcgrpB1moiMxWnN3wZvrPW2Sba0YY2sGlaqzKQsoaQhBdedOUdEQx0_1x_Vxordex_gs_gmnLqwoTUdU2CJTFdfcwg3M5bFZ0bgZKyEuYVJot9YPPWHkLQ2kcYIamV2jw30UcwydPy-ObS3O6kDwsRf8wx9KsjBLghny_HcqfaagVyBuGkkjwmYCg2qwBtWN4nPEcEAH5I92lrRNc_Ulqj3QbYTEJEePCtps8clxV8DSKJBvcV9ONmegODMSgEUSIKoj4McLBz0quwnXQaVyYO-YFsggdxADNcku0EdRPTau3F5Cq8jqZ08J-eoKyQrSOBezis24rehSu7Ifh6TDLJ6pZVfG7gLQP6keMLJfRR6gUPCfpRpF5N9jf_I0seffmim2b4IPu2iJOODPfaNIH_e_?></g></svg>