<svg xmlns="http://www.w3.org/2000/svg" xmlns:xlink="http://www.w3.org/1999/xlink" contentStyleType="text/css" data-diagram-type="DESCRIPTION" height="1864px" preserveAspectRatio="none" style="width:2197px;height:1864px;background:#FFFFFF;" version="1.1" viewBox="0 0 2197 1864" width="2197px" zoomAndPan="magnify"><?plantuml 1.2026.3beta6?><defs/><g><g class="title" data-source-line="33"><text fill="#000000" font-family="Calibri" font-size="24" font-weight="700" lengthAdjust="spacing" textLength="535.5" x="830.1175" y="45.2773">Port Tariff Calculator -- Solution Design</text><text fill="#009688" font-family="Calibri" font-size="15" font-weight="700" lengthAdjust="spacing" textLength="766.9336" x="714.4007" y="64.8608">Generalisable Agentic RAG for Maritime Port Dues (Discovery -&gt; Extraction -&gt; Calculation)</text><text fill="#000000" font-family="Calibri" font-size="22" font-weight="700" lengthAdjust="spacing" textLength="7.6592" x="1094.0379" y="88.8193">&#160;</text></g><!--entity nl--><g class="entity" data-qualified-name="nl" data-source-line="37" id="ent0002"><rect fill="#E8EAF6" height="84.8906" rx="5" ry="5" style="stroke:#5C6BC0;stroke-width:2;" width="247.5449" x="1936.19" y="120.0078"/><text fill="#000000" font-family="Calibri" font-size="14" font-weight="700" lengthAdjust="spacing" textLength="193.4023" x="1954.19" y="151.0029">Natural Language Query</text><text fill="#000000" font-family="Calibri" font-size="14" font-style="italic" lengthAdjust="spacing" textLength="174.5762" x="1954.19" y="167.2998">\"SUDESTADA, 51300 GT</text><text fill="#000000" font-family="Calibri" font-size="14" lengthAdjust="spacing" textLength="211.5449" x="1954.19" y="183.5967">bulk carrier at Durban...\"&lt;/i&gt;</text></g><!--entity json--><g class="entity" data-qualified-name="json" data-source-line="38" id="ent0003"><rect fill="#E8EAF6" height="68.5938" rx="5" ry="5" style="stroke:#5C6BC0;stroke-width:2;" width="164.8096" x="1721.56" y="128.1578"/><text fill="#000000" font-family="Calibri" font-size="14" font-weight="700" lengthAdjust="spacing" textLength="128.8096" x="1739.56" y="159.1529">Structured JSON</text><text fill="#000000" font-family="Calibri" font-size="14" font-style="italic" lengthAdjust="spacing" textLength="128.5908" x="1739.56" y="175.4498">vessel_profile.json</text></g><!--entity pdf--><g class="entity" data-qualified-name="pdf" data-source-line="39" id="ent0004"><rect fill="#E8EAF6" height="68.5938" rx="5" ry="5" style="stroke:#5C6BC0;stroke-width:2;" width="187.5117" x="1484.21" y="128.1578"/><text fill="#000000" font-family="Calibri" font-size="14" font-weight="700" lengthAdjust="spacing" textLength="117.5508" x="1502.21" y="159.1529">Port Tariff PDF</text><text fill="#000000" font-family="Calibri" font-size="14" font-style="italic" lengthAdjust="spacing" textLength="151.5117" x="1502.21" y="175.4498">any port, any country</text></g><!--entity parser--><g class="entity" data-qualified-name="parser" data-source-line="43" id="ent0005"><rect fill="#E3F2FD" height="84.8906" rx="5" ry="5" style="stroke:#1E88E5;stroke-width:2;" width="220.5908" x="1949.67" y="629.5778"/><text fill="#000000" font-family="Calibri" font-size="14" font-weight="700" lengthAdjust="spacing" textLength="128.085" x="1967.67" y="660.5729">query_parser.py</text><text fill="#000000" font-family="Calibri" font-size="14" lengthAdjust="spacing" textLength="178.9033" x="1967.67" y="676.8698">OpenAI structured output</text><text fill="#000000" font-family="Calibri" font-size="14" lengthAdjust="spacing" textLength="76.8838" x="1967.67" y="693.1667">NL text --&gt;</text><text fill="#000000" font-family="Calibri" font-size="14" font-weight="700" lengthAdjust="spacing" textLength="103.2568" x="2049.004" y="693.1667">VesselProfile</text></g><!--entity docproc--><g class="entity" data-qualified-name="docproc" data-source-line="46" id="ent0006"><rect fill="#E3F2FD" height="84.8906" rx="5" ry="5" style="stroke:#1E88E5;stroke-width:2;" width="238.1797" x="1329.87" y="245.9078"/><text fill="#000000" font-family="Calibri" font-size="14" font-weight="700" lengthAdjust="spacing" textLength="187.6396" x="1347.87" y="276.9029">document_processor.py</text><text fill="#000000" font-family="Calibri" font-size="14" lengthAdjust="spacing" textLength="202.1797" x="1347.87" y="293.1998">pdfplumber --&gt; PageContent</text><text fill="#000000" font-family="Calibri" font-size="14" lengthAdjust="spacing" textLength="154.5811" x="1347.87" y="309.4967">--&gt; LangChain chunks</text></g><!--entity vessel--><g class="entity" data-qualified-name="vessel" data-source-line="50" id="ent0007"><rect fill="#E0F2F1" height="101.1875" rx="5" ry="5" style="stroke:#00897B;stroke-width:2;" width="216.1543" x="1736.88" y="834.3578"/><text fill="#000000" font-family="Calibri" font-size="14" font-weight="700" lengthAdjust="spacing" textLength="132.7744" x="1754.88" y="865.3529">vessel_profile.py</text><text fill="#000000" font-family="Calibri" font-size="14" lengthAdjust="spacing" textLength="164.8828" x="1754.88" y="881.6498">VesselProfile (Pydantic)</text><text fill="#000000" font-family="Calibri" font-size="14" lengthAdjust="spacing" textLength="180.1543" x="1754.88" y="897.9467">GT, NT, DWT, LOA, BEAM,</text><text fill="#000000" font-family="Calibri" font-size="14" lengthAdjust="spacing" textLength="137.0195" x="1754.88" y="914.2436">DRAFT, cargo, days</text></g><!--entity schema--><g class="entity" data-qualified-name="schema" data-source-line="51" id="ent0008"><rect fill="#E0F2F1" height="101.1875" rx="5" ry="5" style="stroke:#00897B;stroke-width:2;" width="205.6611" x="1481.13" y="834.3578"/><text fill="#000000" font-family="Calibri" font-size="14" font-weight="700" lengthAdjust="spacing" textLength="131.6191" x="1499.13" y="865.3529">tariff_schema.py</text><text fill="#000000" font-family="Calibri" font-size="14" font-weight="700" lengthAdjust="spacing" textLength="169.6611" x="1499.13" y="881.6498">DiscoveredTariff(Set)</text><text fill="#000000" font-family="Calibri" font-size="14" font-weight="700" lengthAdjust="spacing" textLength="154.0684" x="1499.13" y="897.9467">ExtractedTariffRule</text><text fill="#000000" font-family="Calibri" font-size="14" lengthAdjust="spacing" textLength="86.2559" x="1499.13" y="914.2436">RateBracket</text></g><!--entity chromadb--><g class="entity" data-qualified-name="chromadb" data-source-line="55" id="ent0009"><path d="M1344.23,411.7978 C1344.23,401.7978 1405.9595,401.7978 1405.9595,401.7978 C1405.9595,401.7978 1467.689,401.7978 1467.689,411.7978 L1467.689,485.6884 C1467.689,495.6884 1405.9595,495.6884 1405.9595,495.6884 C1405.9595,495.6884 1344.23,495.6884 1344.23,485.6884 L1344.23,411.7978" fill="#ECEFF1" style="stroke:#546E7A;stroke-width:1;"/><path d="M1344.23,411.7978 C1344.23,421.7978 1405.9595,421.7978 1405.9595,421.7978 C1405.9595,421.7978 1467.689,421.7978 1467.689,411.7978" fill="none" style="stroke:#546E7A;stroke-width:1;"/><text fill="#000000" font-family="Calibri" font-size="14" font-weight="700" lengthAdjust="spacing" textLength="83.0908" x="1362.23" y="446.7929">ChromaDB</text><text fill="#000000" font-family="Calibri" font-size="14" lengthAdjust="spacing" textLength="87.0488" x="1362.23" y="463.0898">.chroma_db/</text><text fill="#000000" font-family="Calibri" font-size="14" lengthAdjust="spacing" textLength="87.459" x="1362.23" y="479.3867">Vector Store</text></g><!--entity dcache--><g class="entity" data-qualified-name="dcache" data-source-line="56" id="ent0010"><path d="M11,635.0778 C11,625.0778 95.9614,625.0778 95.9614,625.0778 C95.9614,625.0778 180.9229,625.0778 180.9229,635.0778 L180.9229,708.9684 C180.9229,718.9684 95.9614,718.9684 95.9614,718.9684 C95.9614,718.9684 11,718.9684 11,708.9684 L11,635.0778" fill="#ECEFF1" style="stroke:#546E7A;stroke-width:1;"/><path d="M11,635.0778 C11,645.0778 95.9614,645.0778 95.9614,645.0778 C95.9614,645.0778 180.9229,645.0778 180.9229,635.0778" fill="none" style="stroke:#546E7A;stroke-width:1;"/><text fill="#000000" font-family="Calibri" font-size="14" font-weight="700" lengthAdjust="spacing" textLength="129.6777" x="29" y="670.0729">Discovery Cache</text><text fill="#000000" font-family="Calibri" font-size="14" lengthAdjust="spacing" textLength="124.8994" x="29" y="686.3698">.discovery_cache/</text><text fill="#000000" font-family="Calibri" font-size="14" lengthAdjust="spacing" textLength="133.9229" x="29" y="702.6667">keyed by PDF hash</text></g><!--entity cache--><g class="entity" data-qualified-name="cache" data-source-line="57" id="ent0011"><path d="M932.52,635.0778 C932.52,625.0778 1034.9575,625.0778 1034.9575,625.0778 C1034.9575,625.0778 1137.395,625.0778 1137.395,635.0778 L1137.395,708.9684 C1137.395,718.9684 1034.9575,718.9684 1034.9575,718.9684 C1034.9575,718.9684 932.52,718.9684 932.52,708.9684 L932.52,635.0778" fill="#ECEFF1" style="stroke:#546E7A;stroke-width:1;"/><path d="M932.52,635.0778 C932.52,645.0778 1034.9575,645.0778 1034.9575,645.0778 C1034.9575,645.0778 1137.395,645.0778 1137.395,635.0778" fill="none" style="stroke:#546E7A;stroke-width:1;"/><text fill="#000000" font-family="Calibri" font-size="14" font-weight="700" lengthAdjust="spacing" textLength="87.3975" x="950.52" y="670.0729">Rule Cache</text><text fill="#000000" font-family="Calibri" font-size="14" lengthAdjust="spacing" textLength="84.7588" x="950.52" y="686.3698">.rule_cache/</text><text fill="#000000" font-family="Calibri" font-size="14" lengthAdjust="spacing" textLength="168.875" x="950.52" y="702.6667">PDF hash + tariff + port</text></g><!--entity discovery--><g class="entity" data-qualified-name="discovery" data-source-line="60" id="ent0012"><rect fill="#FFF3E0" height="150.0781" rx="5" ry="5" style="stroke:#EF6C00;stroke-width:2;" width="263.0283" x="340.45" y="596.9778"/><text fill="#000000" font-family="Calibri" font-size="14" font-weight="700" lengthAdjust="spacing" textLength="165.7646" x="358.45" y="627.9729">PHASE 1 -- Discovery</text><text fill="#000000" font-family="Calibri" font-size="14" lengthAdjust="spacing" textLength="227.0283" x="358.45" y="644.2698">tariff_extractor.discover_tariffs()</text><text fill="#000000" font-family="Calibri" font-size="14" lengthAdjust="spacing" textLength="193.8262" x="358.45" y="660.5667">Broad retrieval (TOP_K=40)</text><text fill="#000000" font-family="Calibri" font-size="14" lengthAdjust="spacing" textLength="195.084" x="358.45" y="676.8636">+ OpenAI structured output</text><text fill="#000000" font-family="Calibri" font-size="14" lengthAdjust="spacing" textLength="21.834" x="358.45" y="693.1604">--&gt;</text><text fill="#000000" font-family="Calibri" font-size="14" font-weight="700" lengthAdjust="spacing" textLength="156.8643" x="384.7342" y="693.1604">DiscoveredTariffSet</text><text fill="#000000" font-family="Calibri" font-size="14" lengthAdjust="spacing" textLength="199.7598" x="358.45" y="709.4573">(document's own taxonomy,</text><text fill="#000000" font-family="Calibri" font-size="14" lengthAdjust="spacing" textLength="191.5635" x="358.45" y="725.7542">no hardcoded tariff names)</text></g><!--entity extractor--><g class="entity" data-qualified-name="extractor" data-source-line="63" id="ent0013"><rect fill="#E3F2FD" height="182.6719" rx="5" ry="5" style="stroke:#1E88E5;stroke-width:2;" width="280.7881" x="1265.57" y="580.6878"/><text fill="#000000" font-family="Calibri" font-size="14" font-weight="700" lengthAdjust="spacing" textLength="169.4561" x="1283.57" y="611.6829">PHASE 2 -- Extraction</text><text fill="#000000" font-family="Calibri" font-size="14" lengthAdjust="spacing" textLength="244.7881" x="1283.57" y="627.9798">tariff_extractor.extract_tariff_rule()</text><text fill="#000000" font-family="Calibri" font-size="14" lengthAdjust="spacing" textLength="204.9619" x="1283.57" y="644.2767">Per-tariff retrieval (TOP_K=8)</text><text fill="#000000" font-family="Calibri" font-size="14" lengthAdjust="spacing" textLength="224.8818" x="1283.57" y="660.5736">Dynamic query from discovered</text><text fill="#000000" font-family="Calibri" font-size="14" lengthAdjust="spacing" textLength="198.3447" x="1283.57" y="676.8704">name + keywords + section</text><text fill="#000000" font-family="Calibri" font-size="14" lengthAdjust="spacing" textLength="195.084" x="1283.57" y="693.1673">+ OpenAI structured output</text><text fill="#000000" font-family="Calibri" font-size="14" lengthAdjust="spacing" textLength="21.834" x="1283.57" y="709.4642">--&gt;</text><text fill="#000000" font-family="Calibri" font-size="14" font-weight="700" lengthAdjust="spacing" textLength="154.0684" x="1309.8542" y="709.4642">ExtractedTariffRule</text><text fill="#000000" font-family="Calibri" font-size="14" lengthAdjust="spacing" textLength="182.6836" x="1283.57" y="725.7611">(schema describes shape,</text><text fill="#000000" font-family="Calibri" font-size="14" lengthAdjust="spacing" textLength="87.0693" x="1283.57" y="742.0579">not formula)</text></g><!--entity agent--><g class="entity" data-qualified-name="agent" data-source-line="66" id="ent0014"><rect fill="#E8F5E9" height="133.7813" rx="5" ry="5" style="stroke:#2E7D32;stroke-width:2;" width="213.0918" x="1439.42" y="976.5478"/><text fill="#000000" font-family="Calibri" font-size="14" font-weight="700" lengthAdjust="spacing" textLength="70.0889" x="1457.42" y="1007.5429">agent.py</text><text fill="#000000" font-family="Calibri" font-size="14" lengthAdjust="spacing" textLength="176.4766" x="1457.42" y="1023.8398">run_agentic_calculation()</text><text fill="#000000" font-family="Calibri" font-size="14" lengthAdjust="spacing" textLength="154.0957" x="1457.42" y="1040.1367">3-phase orchestration</text><text fill="#000000" font-family="Calibri" font-size="14" lengthAdjust="spacing" textLength="140.8477" x="1457.42" y="1056.4336">ThreadPoolExecutor</text><text fill="#000000" font-family="Calibri" font-size="14" lengthAdjust="spacing" textLength="140.458" x="1457.42" y="1072.7304">(N tariffs in parallel)</text><text fill="#000000" font-family="Calibri" font-size="14" font-weight="700" lengthAdjust="spacing" textLength="177.0918" x="1457.42" y="1089.0273">No hardcoded fallback</text></g><!--entity calc--><g class="entity" data-qualified-name="calc" data-source-line="69" id="ent0015"><rect fill="#E8F5E9" height="150.0781" rx="5" ry="5" style="stroke:#2E7D32;stroke-width:2;" width="273.0703" x="1409.43" y="1181.3278"/><text fill="#000000" font-family="Calibri" font-size="14" font-weight="700" lengthAdjust="spacing" textLength="176.5518" x="1427.43" y="1212.3229">PHASE 3 -- Calculation</text><text fill="#000000" font-family="Calibri" font-size="14" lengthAdjust="spacing" textLength="237.0703" x="1427.43" y="1228.6198">calculator.apply_rule(vessel, rule)</text><text fill="#000000" font-family="Calibri" font-size="14" lengthAdjust="spacing" textLength="225.8525" x="1427.43" y="1244.9167">Brackets | per-unit (GT/NT/DWT/</text><text fill="#000000" font-family="Calibri" font-size="14" lengthAdjust="spacing" textLength="213.3838" x="1427.43" y="1261.2136">LOA/BEAM/DRAFT/CARGO_MT)</text><text fill="#000000" font-family="Calibri" font-size="14" lengthAdjust="spacing" textLength="189.7246" x="1427.43" y="1277.5104">| flat fee | min/max bounds</text><text fill="#000000" font-family="Calibri" font-size="14" lengthAdjust="spacing" textLength="204.8799" x="1427.43" y="1293.8073">| time component | multiplier</text><text fill="#000000" font-family="Calibri" font-size="14" font-weight="700" lengthAdjust="spacing" textLength="189.4238" x="1427.43" y="1310.1042">Zero tariff-specific logic</text></g><!--entity result--><g class="entity" data-qualified-name="result" data-source-line="72" id="ent0016"><rect fill="#F3E5F5" height="117.4844" rx="5" ry="5" style="stroke:#7B1FA2;stroke-width:2;" width="265.9131" x="1413" y="1372.4078"/><text fill="#000000" font-family="Calibri" font-size="14" font-weight="700" lengthAdjust="spacing" textLength="138.1748" x="1431" y="1403.4029">CalculationResult</text><text fill="#000000" font-family="Calibri" font-size="14" lengthAdjust="spacing" textLength="206.8896" x="1431" y="1419.6998">N line items with tariff_name,</text><text fill="#000000" font-family="Calibri" font-size="14" lengthAdjust="spacing" textLength="192.0488" x="1431" y="1435.9967">currency, amount, formula,</text><text fill="#000000" font-family="Calibri" font-size="14" font-weight="700" lengthAdjust="spacing" textLength="225.4629" x="1431" y="1452.2936">confidence (HIGH/MED/LOW)</text><text fill="#000000" font-family="Calibri" font-size="14" lengthAdjust="spacing" textLength="4.4502" x="1656.4629" y="1452.2936">,</text><text fill="#000000" font-family="Calibri" font-size="14" lengthAdjust="spacing" textLength="125.4531" x="1431" y="1468.5904">breakdown, notes</text></g><!--entity cli--><g class="entity" data-qualified-name="cli" data-source-line="75" id="ent0017"><rect fill="#F3E5F5" height="68.5938" rx="5" ry="5" style="stroke:#7B1FA2;stroke-width:2;" width="223.168" x="1428.38" y="1539.0378"/><text fill="#000000" font-family="Calibri" font-size="14" font-weight="700" lengthAdjust="spacing" textLength="63.2666" x="1446.38" y="1570.0329">main.py</text><text fill="#000000" font-family="Calibri" font-size="14" lengthAdjust="spacing" textLength="32.6279" x="1514.0968" y="1570.0329">(CLI)</text><text fill="#000000" font-family="Calibri" font-size="14" lengthAdjust="spacing" textLength="187.168" x="1446.38" y="1586.3298">validate | calculate | query</text></g><!--entity api--><g class="entity" data-qualified-name="api" data-source-line="76" id="ent0018"><rect fill="#F3E5F5" height="84.8906" rx="5" ry="5" style="stroke:#7B1FA2;stroke-width:2;" width="214.3564" x="1701.78" y="1530.8878"/><text fill="#000000" font-family="Calibri" font-size="14" font-weight="700" lengthAdjust="spacing" textLength="48.7334" x="1719.78" y="1561.8829">api.py</text><text fill="#000000" font-family="Calibri" font-size="14" lengthAdjust="spacing" textLength="102.5596" x="1772.9636" y="1561.8829">(FastAPI 2.0.0)</text><text fill="#000000" font-family="Calibri" font-size="14" lengthAdjust="spacing" textLength="122.0557" x="1719.78" y="1578.1798">/query  /calculate</text><text fill="#000000" font-family="Calibri" font-size="14" lengthAdjust="spacing" textLength="178.3564" x="1719.78" y="1594.4767">/calculate/upload  /health</text></g><g class="entity" data-qualified-name="GMN44" data-source-line="115" id="ent0045"><path d="M653.49,629.0978 L653.49,668.0178 L603.77,672.0178 L653.49,676.0178 L653.49,714.9416 A5,5 0 0 0 658.49,719.9416 L877.4373,719.9416 A5,5 0 0 0 882.4373,714.9416 L882.4373,634.0978 L872.4373,624.0978 L658.49,624.0978 A5,5 0 0 0 653.49,629.0978" fill="#FFFDE7" style="stroke:#FBC02D;stroke-width:1;"/><path d="M872.4373,624.0978 L872.4373,631.5978 A2.5,2.5 0 0 0 874.9373,634.0978 L882.4373,634.0978 L872.4373,624.0978" fill="#FFFDE7" style="stroke:#FBC02D;stroke-width:1;"/><text fill="#000000" font-family="Calibri" font-size="12" font-weight="700" lengthAdjust="spacing" textLength="130.377" x="667.49" y="648.2365">Runtime Taxonomy</text><text fill="#000000" font-family="Calibri" font-size="12" lengthAdjust="spacing" textLength="148.9453" x="667.49" y="662.2052">LLM reads the document</text><text fill="#000000" font-family="Calibri" font-size="12" lengthAdjust="spacing" textLength="132.8379" x="667.49" y="676.174">and names the tariffs.</text><text fill="#000000" font-family="Calibri" font-size="12" lengthAdjust="spacing" textLength="138.75" x="667.49" y="690.1427">No fixed list of 6 types.</text><text fill="#000000" font-family="Calibri" font-size="12" lengthAdjust="spacing" textLength="191.9473" x="667.49" y="704.1115">No hardcoded section numbers.</text></g><g class="entity" data-qualified-name="GMN47" data-source-line="123" id="ent0048"><path d="M1596.25,629.0978 L1596.25,668.0178 L1546.63,672.0178 L1596.25,676.0178 L1596.25,714.9416 A5,5 0 0 0 1601.25,719.9416 L1792.6699,719.9416 A5,5 0 0 0 1797.6699,714.9416 L1797.6699,634.0978 L1787.6699,624.0978 L1601.25,624.0978 A5,5 0 0 0 1596.25,629.0978" fill="#FFFDE7" style="stroke:#FBC02D;stroke-width:1;"/><path d="M1787.6699,624.0978 L1787.6699,631.5978 A2.5,2.5 0 0 0 1790.1699,634.0978 L1797.6699,634.0978 L1787.6699,624.0978" fill="#FFFDE7" style="stroke:#FBC02D;stroke-width:1;"/><text fill="#000000" font-family="Calibri" font-size="12" font-weight="700" lengthAdjust="spacing" textLength="151.5469" x="1610.25" y="648.2365">Shape-Neutral Prompt</text><text fill="#000000" font-family="Calibri" font-size="12" lengthAdjust="spacing" textLength="147.0293" x="1610.25" y="662.2052">Describes the SCHEMA's</text><text fill="#000000" font-family="Calibri" font-size="12" lengthAdjust="spacing" textLength="164.4199" x="1610.25" y="676.174">building blocks -- does NOT</text><text fill="#000000" font-family="Calibri" font-size="12" lengthAdjust="spacing" textLength="136.3477" x="1610.25" y="690.1427">prescribe formulas per</text><text fill="#000000" font-family="Calibri" font-size="12" lengthAdjust="spacing" textLength="89.4375" x="1610.25" y="704.1115">tariff category.</text></g><g class="entity" data-qualified-name="GMN50" data-source-line="131" id="ent0051"><path d="M1702.61,993.5278 L1702.61,1039.4378 L1652.84,1043.4378 L1702.61,1047.4378 L1702.61,1093.3403 A5,5 0 0 0 1707.61,1098.3403 L1914.317,1098.3403 A5,5 0 0 0 1919.317,1093.3403 L1919.317,998.5278 L1909.317,988.5278 L1707.61,988.5278 A5,5 0 0 0 1702.61,993.5278" fill="#FFFDE7" style="stroke:#FBC02D;stroke-width:1;"/><path d="M1909.317,988.5278 L1909.317,996.0278 A2.5,2.5 0 0 0 1911.817,998.5278 L1919.317,998.5278 L1909.317,988.5278" fill="#FFFDE7" style="stroke:#FBC02D;stroke-width:1;"/><text fill="#000000" font-family="Calibri" font-size="12" font-weight="700" lengthAdjust="spacing" textLength="156.2695" x="1716.61" y="1012.6665">No Hardcoded Fallback</text><text fill="#000000" font-family="Calibri" font-size="12" lengthAdjust="spacing" textLength="169.1426" x="1716.61" y="1026.6352">LOW-confidence extractions</text><text fill="#000000" font-family="Calibri" font-size="12" lengthAdjust="spacing" textLength="153.6914" x="1716.61" y="1040.604">surface as line items with</text><text fill="#000000" font-family="Calibri" font-size="12" lengthAdjust="spacing" textLength="179.707" x="1716.61" y="1054.5727">confidence=LOW and notes --</text><text fill="#000000" font-family="Calibri" font-size="12" lengthAdjust="spacing" textLength="152.8652" x="1716.61" y="1068.5415">never silently substituted</text><text fill="#000000" font-family="Calibri" font-size="12" lengthAdjust="spacing" textLength="100.125" x="1716.61" y="1082.5102">with inline rates.</text></g><g class="entity" data-qualified-name="GMN53" data-source-line="140" id="ent0054"><path d="M1732.03,1199.4778 L1732.03,1252.3678 L1682.95,1256.3678 L1732.03,1260.3678 L1732.03,1313.2591 A5,5 0 0 0 1737.03,1318.2591 L1914.8855,1318.2591 A5,5 0 0 0 1919.8855,1313.2591 L1919.8855,1204.4778 L1909.8855,1194.4778 L1737.03,1194.4778 A5,5 0 0 0 1732.03,1199.4778" fill="#FFFDE7" style="stroke:#FBC02D;stroke-width:1;"/><path d="M1909.8855,1194.4778 L1909.8855,1201.9778 A2.5,2.5 0 0 0 1912.3855,1204.4778 L1919.8855,1204.4778 L1909.8855,1194.4778" fill="#FFFDE7" style="stroke:#FBC02D;stroke-width:1;"/><text fill="#000000" font-family="Calibri" font-size="12" font-weight="700" lengthAdjust="spacing" textLength="148.4355" x="1746.03" y="1218.6165">Single Generic Engine</text><text fill="#000000" font-family="Calibri" font-size="12" lengthAdjust="spacing" textLength="150.8555" x="1746.03" y="1232.5852">One apply_rule() handles</text><text fill="#000000" font-family="Calibri" font-size="12" lengthAdjust="spacing" textLength="122.0039" x="1746.03" y="1246.554">every tariff from the</text><text fill="#000000" font-family="Calibri" font-size="12" lengthAdjust="spacing" textLength="149.9414" x="1746.03" y="1260.5227">schema. 8 measurement</text><text fill="#000000" font-family="Calibri" font-size="12" lengthAdjust="spacing" textLength="149.7598" x="1746.03" y="1274.4915">bases, bounds, brackets,</text><text fill="#000000" font-family="Calibri" font-size="12" lengthAdjust="spacing" textLength="122.3203" x="1746.03" y="1288.4602">time, multiplier -- all</text><text fill="#000000" font-family="Calibri" font-size="12" lengthAdjust="spacing" textLength="119.25" x="1746.03" y="1302.429">independent knobs.</text></g><!--link nl to parser--><g class="link" data-entity-1="ent0002" data-entity-2="ent0005" data-link-type="dependency" data-source-line="80" id="lnk19"><path d="M2059.96,204.9978 C2059.96,300.2878 2059.96,527.7578 2059.96,623.2678" fill="none" id="nl-to-parser" style="stroke:#37474F;stroke-width:2;"/><polygon fill="#37474F" points="2059.96,629.2678,2063.96,620.2678,2059.96,624.2678,2055.96,620.2678,2059.96,629.2678" style="stroke:#37474F;stroke-width:2;"/><text fill="#37474F" font-family="Calibri" font-size="12" lengthAdjust="spacing" textLength="7.6289" x="2068.96" y="370.9365">&#160;&#160;</text><text fill="#1E88E5" font-family="Calibri" font-size="12" lengthAdjust="spacing" textLength="43.3535" x="2076.5889" y="370.9365">gpt-5.4</text></g><!--link json to vessel--><g class="link" data-entity-1="ent0003" data-entity-2="ent0007" data-link-type="dependency" data-source-line="81" id="lnk20"><path d="M1835.48,197.1978 C1854.06,220.6478 1873.96,253.6278 1873.96,287.3478 C1873.96,287.3478 1873.96,287.3478 1873.96,673.0178 C1873.96,728.4678 1865.1516,785.4674 1856.9016,828.0374" fill="none" id="json-to-vessel" style="stroke:#37474F;stroke-width:2;"/><polygon fill="#37474F" points="1855.76,833.9278,1861.3993,825.8532,1856.7113,829.0191,1853.5454,824.3312,1855.76,833.9278" style="stroke:#37474F;stroke-width:2;"/></g><!--link parser to vessel--><g class="link" data-entity-1="ent0005" data-entity-2="ent0007" data-link-type="dependency" data-source-line="83" id="lnk21"><path d="M2017.23,714.9478 C1982.33,749.1878 1937.183,793.4759 1900.223,829.7359" fill="none" id="parser-to-vessel" style="stroke:#37474F;stroke-width:2;"/><polygon fill="#37474F" points="1895.94,833.9378,1905.1658,830.4903,1899.5092,830.4362,1899.5632,824.7796,1895.94,833.9378" style="stroke:#37474F;stroke-width:2;"/><text fill="#37474F" font-family="Calibri" font-size="12" lengthAdjust="spacing" textLength="76.5996" x="1954.96" y="803.4965">VesselProfile</text></g><!--link pdf to docproc--><g class="link" data-entity-1="ent0004" data-entity-2="ent0006" data-link-type="dependency" data-source-line="85" id="lnk22"><path d="M1543.05,196.9878 C1527.38,212.0378 1513.0668,225.781 1496.5268,241.671" fill="none" id="pdf-to-docproc" style="stroke:#37474F;stroke-width:2;"/><polygon fill="#37474F" points="1492.2,245.8278,1501.4614,242.4772,1495.8057,242.3638,1495.919,236.7081,1492.2,245.8278" style="stroke:#37474F;stroke-width:2;"/></g><!--link docproc to chromadb--><g class="link" data-entity-1="ent0006" data-entity-2="ent0009" data-link-type="dependency" data-source-line="86" id="lnk23"><path d="M1437.66,330.9678 C1431.79,352.5978 1426.1723,373.3075 1420.1223,395.5875" fill="none" id="docproc-to-chromadb" style="stroke:#37474F;stroke-width:2;"/><polygon fill="#37474F" points="1418.55,401.3778,1424.7687,393.7406,1419.8603,396.5525,1417.0483,391.6441,1418.55,401.3778" style="stroke:#37474F;stroke-width:2;"/><text fill="#37474F" font-family="Calibri" font-size="12" lengthAdjust="spacing" textLength="79.4707" x="1440.96" y="370.9365">index chunks</text></g><!--link chromadb to discovery--><g class="link" data-entity-1="ent0009" data-entity-2="ent0012" data-link-type="dependency" data-source-line="88" id="lnk24"><path d="M1343.9,452.7578 C1209.7,460.8578 884.06,489.1378 628.96,580.6878 C616.53,585.1478 609.3528,587.9683 597.0128,593.9283" fill="none" id="chromadb-to-discovery" style="stroke:#37474F;stroke-width:2;"/><polygon fill="#37474F" points="591.61,596.5378,601.4539,596.2255,596.1124,594.3633,597.9746,589.0217,591.61,596.5378" style="stroke:#37474F;stroke-width:2;"/><text fill="#37474F" font-family="Calibri" font-size="12" lengthAdjust="spacing" textLength="34.8633" x="874.7588" y="535.8265">broad</text><text fill="#37474F" font-family="Calibri" font-size="12" lengthAdjust="spacing" textLength="50.4609" x="866.96" y="549.7952">retrieval</text></g><!--link dcache to discovery--><g class="link" data-entity-1="ent0010" data-entity-2="ent0012" data-link-type="dependency" data-source-line="89" id="lnk25"><path d="M181.33,709.4478 C194.45,713.8178 208.02,717.5878 221.19,720.0178 C259.87,727.1778 295.9882,724.7928 334.3582,717.0628" fill="none" id="dcache-to-discovery" style="stroke:#37474F;stroke-width:2;"/><polygon fill="#37474F" points="340.24,715.8778,330.6273,713.734,335.3385,716.8653,332.2072,721.5765,340.24,715.8778" style="stroke:#37474F;stroke-width:2;"/><text fill="#37474F" font-family="Calibri" font-size="12" lengthAdjust="spacing" textLength="61.3652" x="230.19" y="695.1565">cache hit?</text><text fill="#37474F" font-family="Calibri" font-size="12" lengthAdjust="spacing" textLength="51.6914" x="235.0269" y="709.1252">skip LLM</text></g><!--reverse link dcache to discovery--><g class="link" data-entity-1="ent0010" data-entity-2="ent0012" data-link-type="dependency" data-source-line="92" id="lnk28"><path d="M187.28,672.0178 C234.19,672.0178 287.4,672.0178 340.13,672.0178" fill="none" id="dcache-backto-discovery" style="stroke:#37474F;stroke-width:2;"/><polygon fill="#37474F" points="181.28,672.0178,190.28,676.0178,186.28,672.0178,190.28,668.0178,181.28,672.0178" style="stroke:#37474F;stroke-width:2;"/><text fill="#37474F" font-family="Calibri" font-size="12" lengthAdjust="spacing" textLength="92.1445" x="214.69" y="658.1565">save taxonomy</text></g><!--link discovery to schema--><g class="link" data-entity-1="ent0012" data-entity-2="ent0008" data-link-type="dependency" data-source-line="91" id="lnk26"><path d="M588.56,747.4478 C601.82,753.6778 615.44,759.1778 628.96,763.3578 C715.63,790.1378 1354.69,805.4578 1442.96,826.3578 C1455.44,829.3078 1462.5841,831.2435 1475.1541,835.6235" fill="none" id="discovery-to-schema" style="stroke:#37474F;stroke-width:2;"/><polygon fill="#37474F" points="1480.82,837.5978,1473.6374,830.8592,1476.0984,835.9526,1471.005,838.4137,1480.82,837.5978" style="stroke:#37474F;stroke-width:2;"/><text fill="#37474F" font-family="Calibri" font-size="12" lengthAdjust="spacing" textLength="118.2891" x="1341.96" y="803.4965">DiscoveredTariffSet</text></g><!--link chromadb to extractor--><g class="link" data-entity-1="ent0009" data-entity-2="ent0013" data-link-type="dependency" data-source-line="94" id="lnk29"><path d="M1405.96,496.1278 C1405.96,520.5878 1405.96,545.4578 1405.96,574.4278" fill="none" id="chromadb-to-extractor" style="stroke:#37474F;stroke-width:2;"/><polygon fill="#37474F" points="1405.96,580.4278,1409.96,571.4278,1405.96,575.4278,1401.96,571.4278,1405.96,580.4278" style="stroke:#37474F;stroke-width:2;"/><text fill="#37474F" font-family="Calibri" font-size="12" lengthAdjust="spacing" textLength="53.0391" x="1414.96" y="535.8265">per-tariff</text><text fill="#37474F" font-family="Calibri" font-size="12" lengthAdjust="spacing" textLength="50.4609" x="1416.2491" y="549.7952">retrieval</text></g><!--link cache to extractor--><g class="link" data-entity-1="ent0011" data-entity-2="ent0013" data-link-type="dependency" data-source-line="95" id="lnk30"><path d="M1137.81,672.0178 C1177.27,672.0178 1217,672.0178 1259.4,672.0178" fill="none" id="cache-to-extractor" style="stroke:#37474F;stroke-width:2;"/><polygon fill="#37474F" points="1265.4,672.0178,1256.4,668.0178,1260.4,672.0178,1256.4,676.0178,1265.4,672.0178" style="stroke:#37474F;stroke-width:2;"/><text fill="#37474F" font-family="Calibri" font-size="12" lengthAdjust="spacing" textLength="61.3652" x="1170.98" y="644.1565">cache hit?</text><text fill="#37474F" font-family="Calibri" font-size="12" lengthAdjust="spacing" textLength="51.6914" x="1175.8169" y="658.1252">skip LLM</text></g><!--reverse link cache to extractor--><g class="link" data-entity-1="ent0011" data-entity-2="ent0013" data-link-type="dependency" data-source-line="98" id="lnk33"><path d="M1143.6322,702.6507 C1152.7822,704.4907 1156.07,704.8778 1164.98,706.0178 C1197.46,710.1978 1232.36,708.7278 1265.24,704.6478" fill="none" id="cache-backto-extractor" style="stroke:#37474F;stroke-width:2;"/><polygon fill="#37474F" points="1137.75,701.4678,1145.7848,707.1636,1142.6519,702.4535,1147.362,699.3206,1137.75,701.4678" style="stroke:#37474F;stroke-width:2;"/><text fill="#37474F" font-family="Calibri" font-size="12" lengthAdjust="spacing" textLength="55.1602" x="1173.98" y="695.1565">save rule</text></g><!--link extractor to schema--><g class="link" data-entity-1="ent0013" data-entity-2="ent0008" data-link-type="dependency" data-source-line="97" id="lnk31"><path d="M1482.48,763.6978 C1502.84,787.8178 1520.2111,808.4018 1537.9611,829.4418" fill="none" id="extractor-to-schema" style="stroke:#37474F;stroke-width:2;"/><polygon fill="#37474F" points="1541.83,834.0278,1539.084,824.5695,1538.6059,830.2061,1532.9693,829.7281,1541.83,834.0278" style="stroke:#37474F;stroke-width:2;"/><text fill="#37474F" font-family="Calibri" font-size="12" lengthAdjust="spacing" textLength="135.9316" x="1529.96" y="803.4965">Nx ExtractedTariffRule</text></g><!--reverse link discovery to agent--><g class="link" data-entity-1="ent0012" data-entity-2="ent0014" data-link-type="dependency" data-source-line="100" id="lnk35"><path d="M600.6654,750.1329 C611.8854,755.8529 617.85,758.5378 628.96,763.3578 C911.59,885.9478 1264.99,977.1778 1439.01,1018.2978" fill="none" id="discovery-backto-agent" style="stroke:#37474F;stroke-width:2;"/><polygon fill="#37474F" points="595.32,747.4078,601.5214,755.0591,599.7745,749.6787,605.1549,747.9319,595.32,747.4078" style="stroke:#37474F;stroke-width:2;"/><text fill="#EF6C00" font-family="Calibri" font-size="12" font-weight="700" lengthAdjust="spacing" textLength="53.2441" x="1155.96" y="889.5865">Phase 1</text></g><!--reverse link extractor to agent--><g class="link" data-entity-1="ent0013" data-entity-2="ent0014" data-link-type="dependency" data-source-line="101" id="lnk37"><path d="M1339.1548,768.9531 C1308.6948,824.2431 1288.68,889.2078 1323.96,943.5478 C1349.75,983.2678 1395.61,1007.1678 1438.97,1021.4878" fill="none" id="extractor-backto-agent" style="stroke:#37474F;stroke-width:2;"/><polygon fill="#37474F" points="1342.05,763.6978,1334.2037,769.6506,1339.6373,768.0772,1341.2107,773.5108,1342.05,763.6978" style="stroke:#37474F;stroke-width:2;"/><text fill="#2E7D32" font-family="Calibri" font-size="12" font-weight="700" lengthAdjust="spacing" textLength="119.5723" x="1332.96" y="889.5865">Phase 2 (parallel)</text></g><!--link vessel to agent--><g class="link" data-entity-1="ent0007" data-entity-2="ent0014" data-link-type="dependency" data-source-line="103" id="lnk38"><path d="M1749.53,935.8878 C1718.77,951.9978 1689.7957,967.1552 1658.2557,983.6652" fill="none" id="vessel-to-agent" style="stroke:#37474F;stroke-width:2;"/><polygon fill="#37474F" points="1652.94,986.4478,1662.7687,985.8178,1657.3698,984.129,1659.0586,978.7301,1652.94,986.4478" style="stroke:#37474F;stroke-width:2;"/></g><!--link schema to agent--><g class="link" data-entity-1="ent0008" data-entity-2="ent0014" data-link-type="dependency" data-source-line="104" id="lnk39"><path d="M1571.83,935.8878 C1568.73,948.6878 1566.7545,956.8069 1563.4845,970.2869" fill="none" id="schema-to-agent" style="stroke:#37474F;stroke-width:2;"/><polygon fill="#37474F" points="1562.07,976.1178,1568.079,968.3145,1563.2487,971.2587,1560.3044,966.4285,1562.07,976.1178" style="stroke:#37474F;stroke-width:2;"/></g><!--link agent to calc--><g class="link" data-entity-1="ent0014" data-entity-2="ent0015" data-link-type="dependency" data-source-line="106" id="lnk40"><path d="M1545.96,1110.5978 C1545.96,1132.9478 1545.96,1152.0478 1545.96,1174.9878" fill="none" id="agent-to-calc" style="stroke:#37474F;stroke-width:2;"/><polygon fill="#37474F" points="1545.96,1180.9878,1549.96,1171.9878,1545.96,1175.9878,1541.96,1171.9878,1545.96,1180.9878" style="stroke:#37474F;stroke-width:2;"/><text fill="#37474F" font-family="Calibri" font-size="12" lengthAdjust="spacing" textLength="84.8965" x="1554.96" y="1150.4665">rules + vessel</text></g><!--link calc to result--><g class="link" data-entity-1="ent0015" data-entity-2="ent0016" data-link-type="dependency" data-source-line="108" id="lnk41"><path d="M1545.96,1331.8878 C1545.96,1345.3178 1545.96,1353.1378 1545.96,1366.0078" fill="none" id="calc-to-result" style="stroke:#37474F;stroke-width:2;"/><polygon fill="#37474F" points="1545.96,1372.0078,1549.96,1363.0078,1545.96,1367.0078,1541.96,1363.0078,1545.96,1372.0078" style="stroke:#37474F;stroke-width:2;"/></g><!--link result to cli--><g class="link" data-entity-1="ent0016" data-entity-2="ent0017" data-link-type="dependency" data-source-line="110" id="lnk42"><path d="M1543.47,1490.3778 C1542.76,1506.9278 1542.2658,1518.3933 1541.6458,1532.9233" fill="none" id="result-to-cli" style="stroke:#37474F;stroke-width:2;"/><polygon fill="#37474F" points="1541.39,1538.9178,1545.77,1530.0965,1541.6032,1533.9224,1537.7773,1529.7555,1541.39,1538.9178" style="stroke:#37474F;stroke-width:2;"/></g><!--link result to api--><g class="link" data-entity-1="ent0016" data-entity-2="ent0018" data-link-type="dependency" data-source-line="111" id="lnk43"><path d="M1655.21,1490.3778 C1680.47,1503.8478 1701.5761,1515.0839 1725.2161,1527.6939" fill="none" id="result-to-api" style="stroke:#37474F;stroke-width:2;"/><polygon fill="#37474F" points="1730.51,1530.5178,1724.4517,1522.7527,1726.0984,1528.1646,1720.6865,1529.8113,1730.51,1530.5178" style="stroke:#37474F;stroke-width:2;"/></g><g class="legend" data-source-line="150"><rect fill="none" height="223.7813" rx="5" ry="5" style="stroke:#000000;stroke-width:1;" width="221.4541" x="1964.2808" y="1628.7784"/><rect fill="#FFF3E0" height="32.2969" style="stroke:none;stroke-width:1;" width="24.9004" x="1977.2808" y="1643.7784"/><text fill="#000000" font-family="Calibri" font-size="14" lengthAdjust="spacing" textLength="8.9004" x="1985.2808" y="1664.7736">&#160;&#160;</text><text fill="#000000" font-family="Calibri" font-size="14" lengthAdjust="spacing" textLength="139.6992" x="2014.6314" y="1664.7736">Discovery (Phase 1)</text><rect fill="#E3F2FD" height="32.2969" style="stroke:none;stroke-width:1;" width="24.9004" x="1977.2808" y="1676.0753"/><text fill="#000000" font-family="Calibri" font-size="14" lengthAdjust="spacing" textLength="8.9004" x="1985.2808" y="1697.0704">&#160;&#160;</text><text fill="#000000" font-family="Calibri" font-size="14" lengthAdjust="spacing" textLength="98.4854" x="2014.6314" y="1697.0704">AI / LLM Layer</text><rect fill="#E0F2F1" height="32.2969" style="stroke:none;stroke-width:1;" width="24.9004" x="1977.2808" y="1708.3722"/><text fill="#000000" font-family="Calibri" font-size="14" lengthAdjust="spacing" textLength="8.9004" x="1985.2808" y="1729.3673">&#160;&#160;</text><text fill="#000000" font-family="Calibri" font-size="14" lengthAdjust="spacing" textLength="87.2061" x="2014.6314" y="1729.3673">Data Models</text><rect fill="#E8F5E9" height="32.2969" style="stroke:none;stroke-width:1;" width="24.9004" x="1977.2808" y="1740.6691"/><text fill="#000000" font-family="Calibri" font-size="14" lengthAdjust="spacing" textLength="8.9004" x="1985.2808" y="1761.6642">&#160;&#160;</text><text fill="#000000" font-family="Calibri" font-size="14" lengthAdjust="spacing" textLength="145.6533" x="2014.6314" y="1761.6642">Orchestration &amp; Calc</text><rect fill="#F3E5F5" height="32.2969" style="stroke:none;stroke-width:1;" width="24.9004" x="1977.2808" y="1772.9659"/><text fill="#000000" font-family="Calibri" font-size="14" lengthAdjust="spacing" textLength="8.9004" x="1985.2808" y="1793.9611">&#160;&#160;</text><text fill="#000000" font-family="Calibri" font-size="14" lengthAdjust="spacing" textLength="99.4971" x="2014.6314" y="1793.9611">Entry / Output</text><rect fill="#ECEFF1" height="32.2969" style="stroke:none;stroke-width:1;" width="24.9004" x="1977.2808" y="1805.2628"/><text fill="#000000" font-family="Calibri" font-size="14" lengthAdjust="spacing" textLength="8.9004" x="1985.2808" y="1826.2579">&#160;&#160;</text><text fill="#000000" font-family="Calibri" font-size="14" lengthAdjust="spacing" textLength="80.5752" x="2014.6314" y="1826.2579">Persistence</text><line style="stroke:#000000;stroke-width:1;" x1="1977.2808" x2="2172.7349" y1="1643.7784" y2="1643.7784"/><line style="stroke:#000000;stroke-width:1;" x1="1977.2808" x2="2172.7349" y1="1676.0753" y2="1676.0753"/><line style="stroke:#000000;stroke-width:1;" x1="1977.2808" x2="2172.7349" y1="1708.3722" y2="1708.3722"/><line style="stroke:#000000;stroke-width:1;" x1="1977.2808" x2="2172.7349" y1="1740.6691" y2="1740.6691"/><line style="stroke:#000000;stroke-width:1;" x1="1977.2808" x2="2172.7349" y1="1772.9659" y2="1772.9659"/><line style="stroke:#000000;stroke-width:1;" x1="1977.2808" x2="2172.7349" y1="1805.2628" y2="1805.2628"/><line style="stroke:#000000;stroke-width:1;" x1="1977.2808" x2="2172.7349" y1="1837.5597" y2="1837.5597"/><line style="stroke:#000000;stroke-width:1;" x1="1977.2808" x2="1977.2808" y1="1643.7784" y2="1837.5597"/><line style="stroke:#000000;stroke-width:1;" x1="2002.1812" x2="2002.1812" y1="1643.7784" y2="1837.5597"/><line style="stroke:#000000;stroke-width:1;" x1="2172.7349" x2="2172.7349" y1="1643.7784" y2="1837.5597"/></g><?plantuml-src ZLXhSzf85ltEhxZhL6ti2Y-_dQp35XR2yGu65aYok-Kggf4Qq21QMZrYCvlvxtjkjoG4iHDFrJZGj_i-Jj_7QVwIBELQKkWBJrNYbQT24OarpOIpMaH1gbmhy8E87fTU8ajoLyv5wYVTG2LzWVEMyBrPv3s_O-pz8Uduh2ICby8D7ZsreBdmuxBYp6QaP4J7pP8W5AxB1wvAQofmPIn3EYzlZ8HQyU9Pir9UbKuYrCANzByAqKqGkJAQB3rdfMGSqqdbpygEBMSb5Yzj9Te6TR5xK4HHyAYF6TZUd5wUNPvrioFFhHarhFH5RrIGPAxiNSgRRhVRiIyB9_FL6wjvqjdJ3us9bo3ywnWh7qxEMjUprZ284fg8o9lF-GQTr1S9DDHgD0xyDF42HHqPUmjrtPYrhXjyilMWZ8RZyzQrmmO_l6astrzSNRLk9IuDUH2B6Uoq5r8bdaEZzYtDeVGUPX8FgQADTb8Pqs77YvtWcumsL6kH_PH4mj56yIrt1r-FhXlQqDQ3IkKjVIp-exl-yFEaj519WeL4NaSQjUtD7o3alaXIE4azBALyn_zCOP_ZGs1Uw-5W_BbZZoVjJhjAvyUdpIRTJXxKBFLNvE1sFIWLx7uq4wfUhpySN3UyrW69c9HFR-mhkzsz-9llAVdXtBh0HVpWm3Y9KWS-I9V-CHxq2ylVSFFIduPHCFTyMVyz3bIXch-yIddvGeUTRg5Sg0s5a5M9Fpb8eOI3pjI7xlnPxN_kuTplqR0z6j_rRyjWxthmNuPpYiIDPLGFCs07eLJjEugteGTf4gR9WuBAH3ubIBaMuVGN3SBGOC1dZNzQ6rmyxPvqEyR5O_lgoZxVSx0pi3xVs_q93KS3onx_t5CtSD8rSfGXTs0tsFeBG48_NSzaf1qR8ayir18sFoXUuEInbkYOv2nJT1lj9VInfbUuUJ_esBtnAnDsBozo5tUGeiFXnXLSRaSFwdPIfJx-xtp5dzu0UNnZj--h3wepQdUnX3HU15LonSRuRGp0xIRSFZPkDvjNxozlVl0bqParZHtC356u0a5UoD8roNSubibH8SqgEnUEKdEt3sea4da3qKecsXMZ-5bNzdFnYsrD1YCQuuzDxyXgMv_i7KXTaOYPY8tZrZ8Arg9pOypM7VrrwiuQ3AJ3FM-CFr8xOOJk36vOTZTtu_pimhvixshTjYzBmFDCkPklJXrUXOcLt23bPnikILgAU6doHOj_RONXsZ4GOQ7GdQi41kPsy84htOJoeeMzkhaRMuClzkZVBrVBy5DxRDCnpuOYREDFbXJIN3AgA0TWQYJn8PBo9Wg4YsnAq46_eVqUJWR3wMyVpvgGlQEN-qFM5_Rp2-bbZ1_cLVmsfk1H0OEdG0Nh3T9T1G0cSXrm13V7He6hn4S6_kBoU8oUsas3Zzszi9hDFNpiVqr6RMjoD-Z_2g0J1cWxoLv0AFkK0JJb2sMGXZAgPOx-WDGLv9qD_CT8rJsMvaZJ8Whf8c0cOky8sVO8EX3ZOoor5w-2-CKYFSog4bJBYRmPvZROMoWrmWcFzZNcjC6qYF0LJR1zoutwHJW5quUYnKIfcWf3A93v1JDWq4vhuP9B9OZW9i8J9kB9CfB27GQ1Rpz99uLFYAIVvK5CQDrChdnV-aUwH_NBsG9IwZC3BYQGjiqpidjklpT1dTYNdTEJlQ2iTi_wt6jpP_f5efnoefH8ZedJAKXONOIXlp6fOJfqbVYBhYNTCMFwJY4o9bLUGeUtaqP_qa3FHqz0qszmps_eZj-msgFRmVH-WgFVQGxjD9SIXzUUQgp54ysOKSOirFpC2TPXe3XUR063zq8Vh4U3z1yP1Hc4jJYKZZT7Dlh1mdCAf3Y2Lm0r-3pPusox89MG6SaONXXy-iGg2M-HTKoFNhBCl9boxYCZdJIAf78su3bh9ZdLF3-hsdydK7FFnGPCp4ztjvyQztQdqHjyrQCAMsR8cHKU9gggIRUPZv6sZovnQfztpqrCbpV7tJPY-idSNeCUPFbBXrRl3kYZd3sqTiO-lsZ-hClPWETxpzhPror2hr3T5N7I7jxHIRrPvsxQCDs16eK9h1MV6sdeSoUcnb8AFp6J2EgUDRi_Swr1ls_hDhWpQK5yQmmQ-aZ6r3xG0L7-EZ3Ltrg4IUsyVfPp-OEA9hNvGPFYbKgcO7UPzUtmdGDi16VDTsNCgv8pi7ozcEGuxobNFkLqhL8fH8MEOXnWyuod5RfEteGFAjcmhaNUOfdiRpSol93__g3mR0kfrxk7ZUsUt4ZMIN7acO5sK3xWoxasOrJZG2o-oMAwFHV0jlTYTrXCafqezeBOEV924DizFmRHVw9dfiP1-KmMnsuOaTvLCKsrbeRxUEQPOsQnVgZg5dzidg5v0fNFxuIIdpUTPtl-X0wBfh-hgf8bMXwZLbt98jrTpCtcESRz3ZOv9XwvHX5V40loNQQ7L2fPBoaE-zx-4cfn_zKrcEmoM_rxWBv32kPRvD0bD5jKkejFibJXE271PH8Fn9ZGhYWdJH08vHfMf0NPUAn3W84uzvum3F6WruOkADc4CfTjXsL6CaZf1nFaabN2nygUfyKT6K_7p29gVPac_1v7PQ_39FEsKr0DTceCQd_VVXj3C4izN_yADFC3PnNp37K3R0D6a8PHTYxl-Z4FI0WoKkMW0Iw2QFEoY-QAjNk8yLCHOxT421ZDmTTQQPR8Wk-nZt4QpGLMONrlM46uFVKHIWpwF6aG2QHAuY8fHeTJYR-1fbcSU4cAye9GZpjFQPrWEV8dI7FkPI1xUcZedsOmgssrmF4iYW4KbLZ64UvKkSXYYAGknGmsJJHn4HoRUVdH5QsbGA0ooo9-hCJLZ4dWtuoXL1bxP6ErH2Jupe0c9DoImKfTBgUL2cOx0UsKGCy6MUoKQy2N2zwh8uQgxzSPYM_Xy_Q1WdUnQHn7zDtiChHKxm8RRkYww8aDtCetwAUdKODN6DtZ_lsua6fUewM3Cj-alsekbsypirHli_cN5XWQQBPTwD4lChq1f3z6XUb4-iu0cD3-3m00?></g></svg>